<svg id="Layer_1" data-name="Layer 1" xmlns="http://www.w3.org/2000/svg" width="7.28in" height="3.88in" viewBox="0 0 524.29 279.46">
  <defs>
    <style>
      .cls-1 {
        fill: none;
        stroke: #231f20;
        stroke-miterlimit: 10;
        stroke-width: 0.5px;
      }
    </style>
  </defs>
  <title>MedSupport</title>
  <polygon class="cls-1" points="241.26 0.25 0.25 0.25 0.25 85.29 101.22 85.29 101.22 76.51 97.68 76.51 97.68 69.9 101.22 69.9 101.22 66.86 109.73 66.86 109.73 69.9 113.27 69.9 113.27 76.51 109.73 76.51 109.73 85.29 416.95 85.29 416.95 76.51 413.41 76.51 413.41 69.9 416.95 69.9 416.95 66.86 425.46 66.86 425.46 69.9 429 69.9 429 76.51 425.46 76.51 425.46 85.29 524.04 85.29 524.04 0.25 249.76 0.25 249.76 9.03 253.31 9.03 253.31 15.64 249.76 15.64 249.76 18.68 241.26 18.68 241.26 15.64 237.72 15.64 237.72 9.03 241.26 9.03 241.26 0.25"/>
  <polygon class="cls-1" points="96.73 194.17 0.25 194.17 0.25 279.21 33.53 279.21 33.53 270.42 29.99 270.42 29.99 263.82 33.53 263.82 33.53 260.78 42.04 260.78 42.04 263.82 45.58 263.82 45.58 270.42 42.04 270.42 42.04 279.21 157.9 279.21 157.9 270.42 154.36 270.42 154.36 263.82 157.9 263.82 157.9 260.78 166.41 260.78 166.41 263.82 169.95 263.82 169.95 270.42 166.41 270.42 166.41 279.21 198.68 279.21 198.68 194.17 105.23 194.17 105.23 202.95 108.78 202.95 108.78 209.55 105.23 209.55 105.23 212.59 96.73 212.59 96.73 209.55 93.19 209.55 93.19 202.95 96.73 202.95 96.73 194.17"/>
  <polygon class="cls-1" points="96.73 97.89 0.25 97.89 0.25 182.93 33.53 182.93 33.53 174.15 29.99 174.15 29.99 167.54 33.53 167.54 33.53 164.51 42.04 164.51 42.04 167.54 45.58 167.54 45.58 174.15 42.04 174.15 42.04 182.93 157.9 182.93 157.9 174.15 154.36 174.15 154.36 167.54 157.9 167.54 157.9 164.51 166.41 164.51 166.41 167.54 169.95 167.54 169.95 174.15 166.41 174.15 166.41 182.93 198.68 182.93 198.68 97.89 105.23 97.89 105.23 106.67 108.78 106.67 108.78 113.28 105.23 113.28 105.23 116.32 96.73 116.32 96.73 113.28 93.19 113.28 93.19 106.67 96.73 106.67 96.73 97.89"/>
  <polygon class="cls-1" points="265.98 97.89 235.89 97.89 235.89 112.09 208.92 112.09 208.92 182.93 361.24 182.93 361.24 174.15 357.69 174.15 357.69 167.54 361.24 167.54 361.24 164.51 369.74 164.51 369.74 167.54 373.29 167.54 373.29 174.15 369.74 174.15 369.74 182.93 521.95 182.93 521.95 112.09 494.99 112.09 494.99 97.89 466.36 97.89 466.36 106.67 469.9 106.67 469.9 113.28 466.36 113.28 466.36 116.32 457.85 116.32 457.85 113.28 454.31 113.28 454.31 106.67 457.85 106.67 457.85 97.89 274.49 97.89 274.49 106.67 278.03 106.67 278.03 113.28 274.49 113.28 274.49 116.32 265.98 116.32 265.98 113.28 262.44 113.28 262.44 106.67 265.98 106.67 265.98 97.89"/>
</svg>
