<svg id="Layer_1" data-name="Layer 1" xmlns="http://www.w3.org/2000/svg" width="485.18mm" height="131.44mm" viewBox="0 0 1375.3 372.58">
  <defs>
    <style>
      .cls-1 {
        fill: none;
        stroke: #231f20;
        stroke-miterlimit: 10;
        stroke-width: 0.5px;
      }
    </style>
  </defs>
  <title>ThickSupport_v0.1</title>
  <polygon class="cls-1" points="1268.28 192.6 1268.28 201.36 1271.82 201.36 1271.82 207.97 1268.28 207.97 1268.28 211.03 1259.77 211.03 1259.77 207.97 1256.23 207.97 1256.23 201.36 1259.77 201.36 1259.77 192.6 116.31 192.6 116.31 201.36 119.85 201.36 119.85 207.97 116.31 207.97 116.31 211.03 107.8 211.03 107.8 207.97 104.26 207.97 104.26 201.36 107.8 201.36 107.8 192.6 0.25 192.6 0.25 277.64 35.41 277.64 35.41 268.89 31.87 268.89 31.87 262.28 35.41 262.28 35.41 259.22 43.92 259.22 43.92 262.28 47.46 262.28 47.46 268.89 43.92 268.89 43.92 277.64 314.73 277.64 314.73 268.89 311.19 268.89 311.19 262.28 314.73 262.28 314.73 259.22 323.24 259.22 323.24 262.28 326.78 262.28 326.78 268.89 323.24 268.89 323.24 277.64 683.4 277.64 683.4 268.89 679.86 268.89 679.86 262.28 683.4 262.28 683.4 259.22 691.9 259.22 691.9 262.28 695.45 262.28 695.45 268.89 691.9 268.89 691.9 277.64 1051.59 277.64 1051.59 268.89 1048.05 268.89 1048.05 262.28 1051.59 262.28 1051.59 259.22 1060.09 259.22 1060.09 262.28 1063.64 262.28 1063.64 268.89 1060.09 268.89 1060.09 277.64 1331.79 277.64 1331.79 268.89 1328.24 268.89 1328.24 262.28 1331.79 262.28 1331.79 259.22 1340.29 259.22 1340.29 262.28 1343.83 262.28 1343.83 268.89 1340.29 268.89 1340.29 277.64 1375.05 277.64 1375.05 192.6 1268.28 192.6"/>
  <polygon class="cls-1" points="33.7 182.74 33.7 173.98 30.16 173.98 30.16 167.38 33.7 167.38 33.7 164.31 42.21 164.31 42.21 167.38 45.75 167.38 45.75 173.98 42.21 173.98 42.21 182.74 358.16 182.74 358.16 173.98 354.61 173.98 354.61 167.38 358.16 167.38 358.16 164.31 366.66 164.31 366.66 167.38 370.2 167.38 370.2 173.98 366.66 173.98 366.66 182.74 682.61 182.74 682.61 173.98 679.06 173.98 679.06 167.38 682.61 167.38 682.61 164.31 691.11 164.31 691.11 167.38 694.65 167.38 694.65 173.98 691.11 173.98 691.11 182.74 722.55 182.74 722.55 97.7 366.66 97.7 366.66 106.46 370.2 106.46 370.2 113.06 366.66 113.06 366.66 116.13 358.16 116.13 358.16 113.06 354.61 113.06 354.61 106.46 358.16 106.46 358.16 97.7 0.25 97.7 0.25 182.74 33.7 182.74"/>
  <polygon class="cls-1" points="33.7 85.29 33.7 76.53 30.16 76.53 30.16 69.93 33.7 69.93 33.7 66.86 42.21 66.86 42.21 69.93 45.75 69.93 45.75 76.53 42.21 76.53 42.21 85.29 358.16 85.29 358.16 76.53 354.61 76.53 354.61 69.93 358.16 69.93 358.16 66.86 366.66 66.86 366.66 69.93 370.2 69.93 370.2 76.53 366.66 76.53 366.66 85.29 682.61 85.29 682.61 76.53 679.06 76.53 679.06 69.93 682.61 69.93 682.61 66.86 691.11 66.86 691.11 69.93 694.65 69.93 694.65 76.53 691.11 76.53 691.11 85.29 722.55 85.29 722.55 0.25 366.66 0.25 366.66 9.01 370.2 9.01 370.2 15.61 366.66 15.61 366.66 18.68 358.16 18.68 358.16 15.61 354.61 15.61 354.61 9.01 358.16 9.01 358.16 0.25 0.25 0.25 0.25 85.29 33.7 85.29"/>
  <polygon class="cls-1" points="1268.28 287.29 1268.28 296.05 1271.82 296.05 1271.82 302.65 1268.28 302.65 1268.28 305.71 1259.77 305.71 1259.77 302.65 1256.23 302.65 1256.23 296.05 1259.77 296.05 1259.77 287.29 116.31 287.29 116.31 296.05 119.85 296.05 119.85 302.65 116.31 302.65 116.31 305.71 107.8 305.71 107.8 302.65 104.26 302.65 104.26 296.05 107.8 296.05 107.8 287.29 0.25 287.29 0.25 372.33 35.41 372.33 35.41 363.57 31.87 363.57 31.87 356.96 35.41 356.96 35.41 353.9 43.92 353.9 43.92 356.96 47.46 356.96 47.46 363.57 43.92 363.57 43.92 372.33 314.73 372.33 314.73 363.57 311.19 363.57 311.19 356.96 314.73 356.96 314.73 353.9 323.24 353.9 323.24 356.96 326.78 356.96 326.78 363.57 323.24 363.57 323.24 372.33 683.4 372.33 683.4 363.57 679.86 363.57 679.86 356.96 683.4 356.96 683.4 353.9 691.9 353.9 691.9 356.96 695.45 356.96 695.45 363.57 691.9 363.57 691.9 372.33 1051.59 372.33 1051.59 363.57 1048.05 363.57 1048.05 356.96 1051.59 356.96 1051.59 353.9 1060.09 353.9 1060.09 356.96 1063.64 356.96 1063.64 363.57 1060.09 363.57 1060.09 372.33 1331.79 372.33 1331.79 363.57 1328.24 363.57 1328.24 356.96 1331.79 356.96 1331.79 353.9 1340.29 353.9 1340.29 356.96 1343.83 356.96 1343.83 363.57 1340.29 363.57 1340.29 372.33 1375.05 372.33 1375.05 287.29 1268.28 287.29"/>
</svg>
