<svg id="Layer_1" data-name="Layer 1" xmlns="http://www.w3.org/2000/svg" width="19.31in" height="10.66in" viewBox="0 0 1390.6 767.26">
  <defs>
    <style>
      .cls-1, .cls-2 {
        fill: none;
        stroke-miterlimit: 10;
        stroke-width: 0.5px;
      }

      .cls-1 {
        stroke: #be1e2d;
      }

      .cls-2 {
        stroke: #231f20;
      }

      .cls-3 {
        fill: #231f20;
      }
    </style>
  </defs>
  <title>TopMed_v0.2</title>
  <rect class="cls-1" x="25.8" y="46.45" width="1390.1" height="766.76" rx="14.06" transform="translate(1416.16 813.46) rotate(180)"/>
  <ellipse class="cls-2" cx="1042.81" cy="450.7" rx="226.77" ry="221.73"/>
  <ellipse class="cls-2" cx="344.38" cy="450.7" rx="226.77" ry="221.73"/>
  <circle class="cls-2" cx="1373.3" cy="386.45" r="4.25"/>
  <circle class="cls-2" cx="16.14" cy="385.7" r="4.25"/>
  <circle class="cls-2" cx="855.12" cy="124.55" r="4.25"/>
  <circle class="cls-2" cx="694" cy="217.64" r="4.25"/>
  <circle class="cls-2" cx="533.59" cy="124.55" r="4.25"/>
  <circle class="cls-2" cx="693.77" cy="467.09" r="4.25"/>
  <circle class="cls-2" cx="1269.58" cy="753.51" r="4.25"/>
  <circle class="cls-2" cx="117.83" cy="753.51" r="4.25"/>
  <circle class="cls-2" cx="117.83" cy="15.37" r="4.25"/>
  <circle class="cls-2" cx="1269.17" cy="15.37" r="4.25"/>
  <g>
    <path class="cls-3" d="M1359.45,162.3V150.7a19.72,19.72,0,1,1,5.32-13.53V162.3Zm0-25.13a14.37,14.37,0,1,0-14.33,14.4A14.32,14.32,0,0,0,1359.45,137.17Z" transform="translate(-25.55 -46.2)"/>
    <path class="cls-3" d="M1325.54,153.3a3.61,3.61,0,1,1-3.61-3.6A3.57,3.57,0,0,1,1325.54,153.3Z" transform="translate(-25.55 -46.2)"/>
    <path class="cls-3" d="M1280.39,130.11a19.69,19.69,0,1,1-1.15,9.72h5.4a14.42,14.42,0,0,0,14.11,11.74,19.13,19.13,0,0,0,2.81-.29Zm32.76,7.06a14.4,14.4,0,0,0-26.28-8.07l19.94,20A14.3,14.3,0,0,0,1313.15,137.17Z" transform="translate(-25.55 -46.2)"/>
    <path class="cls-3" d="M1279.38,153.3a3.6,3.6,0,1,1-3.6-3.6A3.57,3.57,0,0,1,1279.38,153.3Z" transform="translate(-25.55 -46.2)"/>
    <path class="cls-3" d="M1272.33,117.65v25.06a14.19,14.19,0,0,1-25.71,8.28,14.13,14.13,0,0,1-25.63-8.21V117.65h5.33v25.06a8.82,8.82,0,1,0,17.64.07V117.65h5.4v25.06a8.82,8.82,0,1,0,17.64.07V117.65Z" transform="translate(-25.55 -46.2)"/>
    <path class="cls-3" d="M1221.14,153.3a3.6,3.6,0,1,1-3.6-3.6A3.57,3.57,0,0,1,1221.14,153.3Z" transform="translate(-25.55 -46.2)"/>
    <path class="cls-3" d="M1214.08,137.17a19.66,19.66,0,1,1-39.31.14V117.94h5.32v19.23a14.33,14.33,0,1,0,28.66,0V117.94h5.33Z" transform="translate(-25.55 -46.2)"/>
    <path class="cls-3" d="M1175,153.3a3.6,3.6,0,1,1-3.6-3.6A3.57,3.57,0,0,1,1175,153.3Z" transform="translate(-25.55 -46.2)"/>
    <path class="cls-3" d="M1152.31,162.3V150.7a19.72,19.72,0,1,1,5.32-13.53V162.3Zm0-25.13a14.37,14.37,0,1,0-14.33,14.4A14.32,14.32,0,0,0,1152.31,137.17Z" transform="translate(-25.55 -46.2)"/>
    <path class="cls-3" d="M1116.31,137.17v19.37H1111V137.17a14.43,14.43,0,0,0-14.33-14.4v-5.33A19.74,19.74,0,0,1,1116.31,137.17Z" transform="translate(-25.55 -46.2)"/>
    <path class="cls-3" d="M1075,117.51a19.7,19.7,0,1,1-19.66,19.66A19.7,19.7,0,0,1,1075,117.51Zm0,34.06a14.37,14.37,0,1,0-14.33-14.4A14.44,14.44,0,0,0,1075,151.57Z" transform="translate(-25.55 -46.2)"/>
    <path class="cls-3" d="M1032.79,115.49a3.66,3.66,0,0,1,3.6-3.6,3.62,3.62,0,0,1,3.6,3.6,3.57,3.57,0,0,1-3.6,3.6A3.6,3.6,0,0,1,1032.79,115.49Zm.93,7.92v13.76a19.7,19.7,0,0,0,19.66,19.73v-5.33a14.43,14.43,0,0,1-14.33-14.4V123.41Z" transform="translate(-25.55 -46.2)"/>
    <path class="cls-3" d="M993.69,130.11a19.69,19.69,0,1,1-1.15,9.72h5.4a14.43,14.43,0,0,0,14.11,11.74,19.13,19.13,0,0,0,2.81-.29Zm32.76,7.06a14.4,14.4,0,0,0-26.28-8.07l20,20A14.31,14.31,0,0,0,1026.45,137.17Z" transform="translate(-25.55 -46.2)"/>
    <path class="cls-3" d="M970.87,151.57a14.37,14.37,0,1,0-14.12-17.07h-5.4a19.74,19.74,0,1,1,0,5.33h5.4A14.44,14.44,0,0,0,970.87,151.57Z" transform="translate(-25.55 -46.2)"/>
    <path class="cls-3" d="M949.41,137.17a19.71,19.71,0,0,1-39.24,2.66h5.4a14.38,14.38,0,0,0,28.52-2.66V134.5H910.17v-5.33h33.92V112.25h5.32Z" transform="translate(-25.55 -46.2)"/>
  </g>
  <g>
    <path class="cls-3" d="M1357,196.28v-6.12a10.4,10.4,0,1,1,2.81-7.14v13.26Zm0-13.26a7.58,7.58,0,1,0-7.56,7.6A7.55,7.55,0,0,0,1357,183Z" transform="translate(-25.55 -46.2)"/>
    <path class="cls-3" d="M1317.2,183a10.37,10.37,0,1,1,2.81,7.14v3.08h-2.81Zm10.37,7.6A7.58,7.58,0,1,0,1320,183,7.62,7.62,0,0,0,1327.57,190.62Z" transform="translate(-25.55 -46.2)"/>
    <path class="cls-3" d="M1316.17,183a10.4,10.4,0,0,1-20.71,1.4h2.85a7.59,7.59,0,0,0,15-1.4v-1.41h-17.9V178.8h17.9v-8.93h2.81Z" transform="translate(-25.55 -46.2)"/>
    <path class="cls-3" d="M1284,190.62a7.58,7.58,0,1,0-7.44-9h-2.85a10.42,10.42,0,1,1,0,2.81h2.85A7.61,7.61,0,0,0,1284,190.62Z" transform="translate(-25.55 -46.2)"/>
    <path class="cls-3" d="M1269.89,183.21a7.58,7.58,0,1,0-15.16,0v10h-2.82v-10a10.41,10.41,0,0,1,18-7.14v-6.2h2.81v23.37h-2.81Z" transform="translate(-25.55 -46.2)"/>
    <path class="cls-3" d="M1249.48,167.86a7.76,7.76,0,0,0,1.4,4.41v4a10.46,10.46,0,0,1-4.21-8.4V166.3h2.81Z" transform="translate(-25.55 -46.2)"/>
    <path class="cls-3" d="M1238.35,172.84a7.5,7.5,0,0,0,7.29,5.7v2.85a10.49,10.49,0,0,1-9.23-5.7h-8.66V183a7.58,7.58,0,0,0,15,1.4h2.85a10.4,10.4,0,0,1-20.71-1.4V172.84Z" transform="translate(-25.55 -46.2)"/>
    <path class="cls-3" d="M1197.27,179.3a10.38,10.38,0,1,1-.61,5.12h2.85a7.63,7.63,0,0,0,7.45,6.2,10.6,10.6,0,0,0,1.48-.15Zm17.29,3.72a7.59,7.59,0,0,0-7.6-7.56,7.69,7.69,0,0,0-6.27,3.3l10.52,10.53A7.55,7.55,0,0,0,1214.56,183Z" transform="translate(-25.55 -46.2)"/>
    <path class="cls-3" d="M1174.85,183a10.37,10.37,0,1,1,2.81,7.14v3.08h-2.81Zm10.37,7.6a7.58,7.58,0,1,0-7.56-7.6A7.62,7.62,0,0,0,1185.22,190.62Z" transform="translate(-25.55 -46.2)"/>
    <path class="cls-3" d="M1173.82,183v10.22H1171V183a7.61,7.61,0,0,0-7.56-7.6v-2.81A10.41,10.41,0,0,1,1173.82,183Z" transform="translate(-25.55 -46.2)"/>
    <path class="cls-3" d="M1162.42,183a10.39,10.39,0,0,1-10.37,10.41v-2.81a7.61,7.61,0,0,0,7.56-7.6V169.91h2.81Z" transform="translate(-25.55 -46.2)"/>
    <path class="cls-3" d="M1133.05,183a7.58,7.58,0,1,0,15.16,0V172.87H1151V183a10.4,10.4,0,0,1-18,7.14v6.08h-2.81V172.87h2.81Z" transform="translate(-25.55 -46.2)"/>
    <path class="cls-3" d="M1122.68,172.72v13.22a7.49,7.49,0,0,1-13.57,4.37,7.45,7.45,0,0,1-13.52-4.33V172.72h2.81v13.22a4.66,4.66,0,1,0,9.31,0V172.72h2.85v13.22a4.65,4.65,0,1,0,9.3,0V172.72Z" transform="translate(-25.55 -46.2)"/>
    <path class="cls-3" d="M1073.77,183a10.37,10.37,0,1,1,2.81,7.14v3.08h-2.81Zm10.37,7.6a7.58,7.58,0,1,0-7.56-7.6A7.62,7.62,0,0,0,1084.14,190.62Z" transform="translate(-25.55 -46.2)"/>
    <path class="cls-3" d="M1072.74,183v10.22h-2.81V183a7.61,7.61,0,0,0-7.56-7.6v-2.81A10.41,10.41,0,0,1,1072.74,183Z" transform="translate(-25.55 -46.2)"/>
    <path class="cls-3" d="M1040.6,183.1a10.37,10.37,0,1,1,20.74-.08v10.22h-2.81V183.1a7.56,7.56,0,1,0-15.12,0v10.14h-2.81Z" transform="translate(-25.55 -46.2)"/>
    <path class="cls-3" d="M1036.3,171.54a1.9,1.9,0,0,1,3.8,0,1.9,1.9,0,1,1-3.8,0Zm3.31,4.22v17.48h-2.81V175.76Z" transform="translate(-25.55 -46.2)"/>
    <path class="cls-3" d="M1015,183.1a10.37,10.37,0,1,1,20.74-.08v10.22H1033V183.1a7.56,7.56,0,1,0-15.12,0v10.14H1015Z" transform="translate(-25.55 -46.2)"/>
    <path class="cls-3" d="M1003.59,184.42h-7.41a7.54,7.54,0,1,0,1.14-5.62h-3.19a10.44,10.44,0,1,1-.88,4.22c0-.46,0-1,.08-1.41h10.26Z" transform="translate(-25.55 -46.2)"/>
    <path class="cls-3" d="M985.69,183a10.38,10.38,0,0,1-20.75.08V172.87h2.81V183a7.57,7.57,0,1,0,15.13,0V172.87h2.81Z" transform="translate(-25.55 -46.2)"/>
    <path class="cls-3" d="M943.21,183.1A10.37,10.37,0,1,1,964,183v10.22h-2.81V183.1a7.56,7.56,0,1,0-15.12,0v10.14h-2.81Z" transform="translate(-25.55 -46.2)"/>
    <path class="cls-3" d="M938.91,171.54a1.9,1.9,0,0,1,3.8,0,1.9,1.9,0,0,1-3.8,0Zm3.31,4.22v17.48h-2.81V175.76Z" transform="translate(-25.55 -46.2)"/>
    <path class="cls-3" d="M938.38,183a10.4,10.4,0,0,1-20.71,1.4h2.85a7.59,7.59,0,0,0,15.05-1.4v-1.41h-17.9V178.8h17.9v-8.93h2.81Z" transform="translate(-25.55 -46.2)"/>
  </g>
</svg>
